<?xml version="1.0" standalone="no"?>
<!DOCTYPE svg PUBLIC "-//W3C//DTD SVG 1.1//EN" "http://www.w3.org/Graphics/SVG/1.1/DTD/svg11.dtd">
<svg width="100%" height="100%" viewBox="0 0 10.6 9.04893" version="1.1" xmlns="http://www.w3.org/2000/svg">
<defs>
<marker id="Triangle" viewBox="0 0 10 10" refX="0" refY="5"  markerUnits="strokeWidth" markerWidth="4" markerHeight="3" orient="auto">
<path d="M 0 0 L 10 5 L 0 10 z" />
</marker>
</defs>
<g transform="translate(0.05 8.99893) scale(1 -1)">
<polygon style="fill:lightblue; stroke:darkblue; stroke-width:0.04" points="4.95,4.30126 4.95,3.72391 5.5,3.40637 6,3.69504 6.5,3.40637 7,3.69504 7.5,3.40637 8.05,3.72391 8.05,4.30126 8.55,4.58993 8.55,5.16728 9.05,5.45596 9.05,6.09105 8.55,6.37972 8.55,6.95707 8.05,7.24575 8.05,7.8231 7.5,8.14064 7,7.85196 6.5,8.14064 6,7.85196 5.5,8.14064 4.95,7.8231 4.95,7.24575 4.45,6.95707 4.45,6.37972 3.95,6.09105 3.95,5.45596 4.45,5.16728 4.45,4.58993"/>
<g style="fill:pink; stroke:darkred; stroke-width:0.04">
<polygon points="1.55,1.70318 1.55,1.18357 2,0.92376 2.45,1.18357 2.45,1.70318 2,1.96299"/>
<polygon points="3.55,1.70318 3.55,1.18357 4,0.92376 4.45,1.18357 4.45,1.70318 4,1.96299"/>
<polygon points="3.55,3.43523 3.55,2.91562 4,2.65581 4.45,2.91562 4.45,3.43523 4,3.69504"/>
<polygon style="fill:lightgreen; stroke:darkgreen" points="1.55,5.22502 1.55,4.64767 2,4.38786 2.5,4.67654 3,4.38786 3.45,4.64767 3.45,5.16728 2.95,5.45596 2.95,6.03331 2.5,6.29312 2,6.00444 1.5,6.29312 1.05,6.03331 1.05,5.5137"/>
</g>
<g style="fill:none; stroke:black; stroke-width:0.08; marker-end:url(#Triangle)">
<polyline points="2,1.44338 2.5,2.3094 3,3.17543 4,3.17543"/>
<polyline points="4,1.44338 5,1.44338 6,1.44338 6.5,0.57735 7.5,0.57735 8.5,0.57735 9.5,0.57735 10,1.44338 9.5,2.3094 8.5,2.3094 7.5,2.3094"/>
</g>
<path style="fill:none; stroke:gray; stroke-width:0.01" d="M 1,0.288675L 1,0.866025L 0.5,1.1547L 0,0.866025M 2,0.288675L 2,0.866025L 1.5,1.1547L 1,0.866025M 3,0.288675L 3,0.866025L 2.5,1.1547L 2,0.866025M 4,0.288675L 4,0.866025L 3.5,1.1547L 3,0.866025M 5,0.288675L 5,0.866025L 4.5,1.1547L 4,0.866025M 6,0.288675L 6,0.866025L 5.5,1.1547L 5,0.866025M 7,0.288675L 7,0.866025L 6.5,1.1547L 6,0.866025M 8,0.288675L 8,0.866025L 7.5,1.1547L 7,0.866025M 9,0.288675L 9,0.866025L 8.5,1.1547L 8,0.866025M 10,0.288675L 10,0.866025L 9.5,1.1547L 9,0.866025M 1.5,1.1547L 1.5,1.73205L 1,2.02073L 0.5,1.73205M 2.5,1.1547L 2.5,1.73205L 2,2.02073L 1.5,1.73205M 3.5,1.1547L 3.5,1.73205L 3,2.02073L 2.5,1.73205M 4.5,1.1547L 4.5,1.73205L 4,2.02073L 3.5,1.73205M 5.5,1.1547L 5.5,1.73205L 5,2.02073L 4.5,1.73205M 6.5,1.1547L 6.5,1.73205L 6,2.02073L 5.5,1.73205M 7.5,1.1547L 7.5,1.73205L 7,2.02073L 6.5,1.73205M 8.5,1.1547L 8.5,1.73205L 8,2.02073L 7.5,1.73205M 9.5,1.1547L 9.5,1.73205L 9,2.02073L 8.5,1.73205M 10.5,1.1547L 10.5,1.73205L 10,2.02073L 9.5,1.73205M 1,2.02073L 1,2.59808L 0.5,2.88675L 0,2.59808M 2,2.02073L 2,2.59808L 1.5,2.88675L 1,2.59808M 3,2.02073L 3,2.59808L 2.5,2.88675L 2,2.59808M 4,2.02073L 4,2.59808L 3.5,2.88675L 3,2.59808M 5,2.02073L 5,2.59808L 4.5,2.88675L 4,2.59808M 6,2.02073L 6,2.59808L 5.5,2.88675L 5,2.59808M 7,2.02073L 7,2.59808L 6.5,2.88675L 6,2.59808M 8,2.02073L 8,2.59808L 7.5,2.88675L 7,2.59808M 9,2.02073L 9,2.59808L 8.5,2.88675L 8,2.59808M 10,2.02073L 10,2.59808L 9.5,2.88675L 9,2.59808M 1.5,2.88675L 1.5,3.4641L 1,3.75278L 0.5,3.4641M 2.5,2.88675L 2.5,3.4641L 2,3.75278L 1.5,3.4641M 3.5,2.88675L 3.5,3.4641L 3,3.75278L 2.5,3.4641M 4.5,2.88675L 4.5,3.4641L 4,3.75278L 3.5,3.4641M 5.5,2.88675L 5.5,3.4641L 5,3.75278L 4.5,3.4641M 6.5,2.88675L 6.5,3.4641L 6,3.75278L 5.5,3.4641M 7.5,2.88675L 7.5,3.4641L 7,3.75278L 6.5,3.4641M 8.5,2.88675L 8.5,3.4641L 8,3.75278L 7.5,3.4641M 9.5,2.88675L 9.5,3.4641L 9,3.75278L 8.5,3.4641M 10.5,2.88675L 10.5,3.4641L 10,3.75278L 9.5,3.4641M 1,3.75278L 1,4.33013L 0.5,4.6188L 0,4.33013M 2,3.75278L 2,4.33013L 1.5,4.6188L 1,4.33013M 3,3.75278L 3,4.33013L 2.5,4.6188L 2,4.33013M 4,3.75278L 4,4.33013L 3.5,4.6188L 3,4.33013M 5,3.75278L 5,4.33013L 4.5,4.6188L 4,4.33013M 6,3.75278L 6,4.33013L 5.5,4.6188L 5,4.33013M 7,3.75278L 7,4.33013L 6.5,4.6188L 6,4.33013M 8,3.75278L 8,4.33013L 7.5,4.6188L 7,4.33013M 9,3.75278L 9,4.33013L 8.5,4.6188L 8,4.33013M 10,3.75278L 10,4.33013L 9.5,4.6188L 9,4.33013M 1.5,4.6188L 1.5,5.19615L 1,5.48483L 0.5,5.19615M 2.5,4.6188L 2.5,5.19615L 2,5.48483L 1.5,5.19615M 3.5,4.6188L 3.5,5.19615L 3,5.48483L 2.5,5.19615M 4.5,4.6188L 4.5,5.19615L 4,5.48483L 3.5,5.19615M 5.5,4.6188L 5.5,5.19615L 5,5.48483L 4.5,5.19615M 6.5,4.6188L 6.5,5.19615L 6,5.48483L 5.5,5.19615M 7.5,4.6188L 7.5,5.19615L 7,5.48483L 6.5,5.19615M 8.5,4.6188L 8.5,5.19615L 8,5.48483L 7.5,5.19615M 9.5,4.6188L 9.5,5.19615L 9,5.48483L 8.5,5.19615M 10.5,4.6188L 10.5,5.19615L 10,5.48483L 9.5,5.19615M 1,5.48483L 1,6.06218L 0.5,6.35085L 0,6.06218M 2,5.48483L 2,6.06218L 1.5,6.35085L 1,6.06218M 3,5.48483L 3,6.06218L 2.5,6.35085L 2,6.06218M 4,5.48483L 4,6.06218L 3.5,6.35085L 3,6.06218M 5,5.48483L 5,6.06218L 4.5,6.35085L 4,6.06218M 6,5.48483L 6,6.06218L 5.5,6.35085L 5,6.06218M 7,5.48483L 7,6.06218L 6.5,6.35085L 6,6.06218M 8,5.48483L 8,6.06218L 7.5,6.35085L 7,6.06218M 9,5.48483L 9,6.06218L 8.5,6.35085L 8,6.06218M 10,5.48483L 10,6.06218L 9.5,6.35085L 9,6.06218M 1.5,6.35085L 1.5,6.9282L 1,7.21688L 0.5,6.9282M 2.5,6.35085L 2.5,6.9282L 2,7.21688L 1.5,6.9282M 3.5,6.35085L 3.5,6.9282L 3,7.21688L 2.5,6.9282M 4.5,6.35085L 4.5,6.9282L 4,7.21688L 3.5,6.9282M 5.5,6.35085L 5.5,6.9282L 5,7.21688L 4.5,6.9282M 6.5,6.35085L 6.5,6.9282L 6,7.21688L 5.5,6.9282M 7.5,6.35085L 7.5,6.9282L 7,7.21688L 6.5,6.9282M 8.5,6.35085L 8.5,6.9282L 8,7.21688L 7.5,6.9282M 9.5,6.35085L 9.5,6.9282L 9,7.21688L 8.5,6.9282M 10.5,6.35085L 10.5,6.9282L 10,7.21688L 9.5,6.9282M 1,7.21688L 1,7.79423L 0.5,8.0829L 0,7.79423M 2,7.21688L 2,7.79423L 1.5,8.0829L 1,7.79423M 3,7.21688L 3,7.79423L 2.5,8.0829L 2,7.79423M 4,7.21688L 4,7.79423L 3.5,8.0829L 3,7.79423M 5,7.21688L 5,7.79423L 4.5,8.0829L 4,7.79423M 6,7.21688L 6,7.79423L 5.5,8.0829L 5,7.79423M 7,7.21688L 7,7.79423L 6.5,8.0829L 6,7.79423M 8,7.21688L 8,7.79423L 7.5,8.0829L 7,7.79423M 9,7.21688L 9,7.79423L 8.5,8.0829L 8,7.79423M 10,7.21688L 10,7.79423L 9.5,8.0829L 9,7.79423M 1.5,8.0829L 1.5,8.66025L 1,8.94893L 0.5,8.66025M 2.5,8.0829L 2.5,8.66025L 2,8.94893L 1.5,8.66025M 3.5,8.0829L 3.5,8.66025L 3,8.94893L 2.5,8.66025M 4.5,8.0829L 4.5,8.66025L 4,8.94893L 3.5,8.66025M 5.5,8.0829L 5.5,8.66025L 5,8.94893L 4.5,8.66025M 6.5,8.0829L 6.5,8.66025L 6,8.94893L 5.5,8.66025M 7.5,8.0829L 7.5,8.66025L 7,8.94893L 6.5,8.66025M 8.5,8.0829L 8.5,8.66025L 8,8.94893L 7.5,8.66025M 9.5,8.0829L 9.5,8.66025L 9,8.94893L 8.5,8.66025M 10.5,8.0829L 10.5,8.66025L 10,8.94893L 9.5,8.66025M 0,0.866025L 0,0.288675L 0.5,0L 1,0.288675L 1.5,0L 2,0.288675L 2.5,0L 3,0.288675L 3.5,0L 4,0.288675L 4.5,0L 5,0.288675L 5.5,0L 6,0.288675L 6.5,0L 7,0.288675L 7.5,0L 8,0.288675L 8.5,0L 9,0.288675L 9.5,0L 10,0.288675L 10,0.866025L 10.5,1.1547L 10.5,1.73205L 10,2.02073L 10,2.59808L 10.5,2.88675L 10.5,3.4641L 10,3.75278L 10,4.33013L 10.5,4.6188L 10.5,5.19615L 10,5.48483L 10,6.06218L 10.5,6.35085L 10.5,6.9282L 10,7.21688L 10,7.79423L 10.5,8.0829L 10.5,8.66025L 10,8.94893L 9.5,8.66025L 9,8.94893L 8.5,8.66025L 8,8.94893L 7.5,8.66025L 7,8.94893L 6.5,8.66025L 6,8.94893L 5.5,8.66025L 5,8.94893L 4.5,8.66025L 4,8.94893L 3.5,8.66025L 3,8.94893L 2.5,8.66025L 2,8.94893L 1.5,8.66025L 1,8.94893L 0.5,8.66025L 0.5,8.0829L 0,7.79423L 0,7.21688L 0.5,6.9282L 0.5,6.35085L 0,6.06218L 0,5.48483L 0.5,5.19615L 0.5,4.6188L 0,4.33013L 0,3.75278L 0.5,3.4641L 0.5,2.88675L 0,2.59808L 0,2.02073L 0.5,1.73205L 0.5,1.1547L 0,0.866025"/>
</g></svg>
