<?xml version="1.0" standalone="no"?>
<!DOCTYPE svg PUBLIC "-//W3C//DTD SVG 1.1//EN" "http://www.w3.org/Graphics/SVG/1.1/DTD/svg11.dtd">
<svg width="100%" height="100%" viewBox="0 0 10.5 8.94893" version="1.1" xmlns="http://www.w3.org/2000/svg" xmlns:xlink="http://www.w3.org/1999/xlink">
<defs>
<marker id="Triangle" viewBox="0 0 10 10" refX="0" refY="5"  markerUnits="strokeWidth" markerWidth="4" markerHeight="3" orient="auto">
<path d="M 0 0 L 10 5 L 0 10 z" />
</marker>
</defs>
<polygon style="fill:lightblue; stroke:darkblue; stroke-width:0.04" points="3.95,2.85788 3.95,3.49297 4.45,3.78164 4.45,4.35899 4.95,4.64767 4.95,5.22502 5.5,5.54256 6,5.25389 6.5,5.54256 7,5.25389 7.5,5.54256 8.05,5.22502 8.05,4.64767 8.55,4.35899 8.55,3.78164 9.05,3.49297 9.05,2.85788 8.55,2.56921 8.55,1.99186 8.05,1.70318 8.05,1.12583 7.5,0.80829 7,1.09697 6.5,0.80829 6,1.09697 5.5,0.80829 4.95,1.12583 4.95,1.70318 4.45,1.99186 4.45,2.56921"/>
<g style="fill:pink; stroke:darkred; stroke-width:0.04">
<polygon points="1.55,7.24575 1.55,7.76536 2,8.02517 2.45,7.76536 2.45,7.24575 2,6.98594"/>
<polygon points="3.55,7.24575 3.55,7.76536 4,8.02517 4.45,7.76536 4.45,7.24575 4,6.98594"/>
<polygon points="3.55,5.5137 3.55,6.03331 4,6.29312 4.45,6.03331 4.45,5.5137 4,5.25389"/>
<polygon style="fill:lightgreen; stroke:darkgreen" points="1.55,3.72391 1.55,4.30126 2,4.56107 2.5,4.27239 3,4.56107 3.45,4.30126 3.45,3.78164 2.95,3.49297 2.95,2.91562 2.5,2.65581 2,2.94449 1.5,2.65581 1.05,2.91562 1.05,3.43523"/>
</g>
<g style="fill:none; stroke:black; stroke-width:0.08; marker-end:url(#Triangle)">
<polyline points="2,7.50555 2.5,6.63953 3,5.7735 4,5.7735"/>
<polyline points="4,7.50555 5,7.50555 6,7.50555 6.5,8.37158 7.5,8.37158 8.5,8.37158 9.5,8.37158 10,7.50555 9.5,6.63953 8.5,6.63953 7.5,6.63953"/>
</g>
<path style="fill:none; stroke:gray; stroke-width:0.01" d="M 2.5,7.79423 l 0,-0.57735 -0.5,-0.288675 -0.5,0.288675 m 3,0.57735 l 0,-0.57735 -0.5,-0.288675 -0.5,0.288675 m 1,-1.1547 l 0,-0.57735 -0.5,-0.288675 -0.5,0.288675 m -0.5,1.44338 l 0,-0.57735 -0.5,-0.288675 -0.5,0.288675 m 1.5,-0.288675 l 0,-0.57735 -0.5,-0.288675 -0.5,0.288675 m 3,2.3094 l 0,-0.57735 -0.5,-0.288675 -0.5,0.288675 m 2,0.57735 l 0,-0.57735 -0.5,-0.288675 -0.5,0.288675 m 1.5,1.44338 l 0,-0.57735 -0.5,-0.288675 -0.5,0.288675 m 2,0.57735 l 0,-0.57735 -0.5,-0.288675 -0.5,0.288675 m 2,0.57735 l 0,-0.57735 -0.5,-0.288675 -0.5,0.288675 m 2,0.57735 l 0,-0.57735 -0.5,-0.288675 -0.5,0.288675 m 1.5,-0.288675 l 0,-0.57735 -0.5,-0.288675 -0.5,0.288675 m 0.5,-0.288675 l 0,-0.57735 -0.5,-0.288675 -0.5,0.288675 m 0,0.57735 l 0,-0.57735 -0.5,-0.288675 -0.5,0.288675 m 0,0.57735 l 0,-0.57735 -0.5,-0.288675 -0.5,0.288675 m -4.5,-2.02073 l 0,-0.57735 -0.5,-0.288675 -0.5,0.288675 m 0.5,-0.288675 l 0,-0.57735 -0.5,-0.288675 -0.5,0.288675 m 2.5,1.44338 l 0,-0.57735 -0.5,-0.288675 -0.5,0.288675 m 0.5,-0.288675 l 0,-0.57735 -0.5,-0.288675 -0.5,0.288675 m -0.5,1.44338 l 0,-0.57735 -0.5,-0.288675 -0.5,0.288675 m 1.5,1.44338 l 0,-0.57735 -0.5,-0.288675 -0.5,0.288675 m 2,0.57735 l 0,-0.57735 -0.5,-0.288675 -0.5,0.288675 m 0.5,-2.02073 l 0,-0.57735 -0.5,-0.288675 -0.5,0.288675 m 0,0.57735 l 0,-0.57735 -0.5,-0.288675 -0.5,0.288675 m 0.5,1.44338 l 0,-0.57735 -0.5,-0.288675 -0.5,0.288675 m 4.5,1.44338 l 0,-0.57735 -0.5,-0.288675 -0.5,0.288675 m 0.5,-0.288675 l 0,-0.57735 -0.5,-0.288675 -0.5,0.288675 m 1,2.3094 l 0,-0.57735 -0.5,-0.288675 -0.5,0.288675 m 4,-1.1547 l 0,-0.57735 -0.5,-0.288675 -0.5,0.288675 m 2,0.57735 l 0,-0.57735 -0.5,-0.288675 -0.5,0.288675 m 0.5,-0.288675 l 0,-0.57735 -0.5,-0.288675 -0.5,0.288675 m 0,0.57735 l 0,-0.57735 -0.5,-0.288675 -0.5,0.288675 m 0.5,1.44338 l 0,-0.57735 -0.5,-0.288675 -0.5,0.288675 m 1.5,1.44338 l 0,-0.57735 -0.5,-0.288675 -0.5,0.288675 m 2,0.57735 l 0,-0.57735 -0.5,-0.288675 -0.5,0.288675 m 2.5,-0.288675 l 0,-0.57735 -0.5,-0.288675 -0.5,0.288675 m 0.5,-0.288675 l 0,-0.57735 -0.5,-0.288675 -0.5,0.288675 m 0.5,-0.288675 l 0,-0.57735 -0.5,-0.288675 -0.5,0.288675 m 0,0.57735 l 0,-0.57735 -0.5,-0.288675 -0.5,0.288675 m 0,0.57735 l 0,-0.57735 -0.5,-0.288675 -0.5,0.288675 m 0.5,1.44338 l 0,-0.57735 -0.5,-0.288675 -0.5,0.288675 m 0.5,1.44338 l 0,-0.57735 -0.5,-0.288675 -0.5,0.288675 m 1.5,1.44338 l 0,-0.57735 -0.5,-0.288675 -0.5,0.288675 m 1.5,1.44338 l 0,-0.57735 -0.5,-0.288675 -0.5,0.288675 m 2,0.57735 l 0,-0.57735 -0.5,-0.288675 -0.5,0.288675 m 2,0.57735 l 0,-0.57735 -0.5,-0.288675 -0.5,0.288675 m 1.5,-0.288675 l 0,-0.57735 -0.5,-0.288675 -0.5,0.288675 m -2.5,1.44338 l 0,-0.57735 -0.5,-0.288675 -0.5,0.288675 m 1.5,1.44338 l 0,-0.57735 -0.5,-0.288675 -0.5,0.288675 m 2,0.57735 l 0,-0.57735 -0.5,-0.288675 -0.5,0.288675 m 2,0.57735 l 0,-0.57735 -0.5,-0.288675 -0.5,0.288675 m 2,0.57735 l 0,-0.57735 -0.5,-0.288675 -0.5,0.288675 m 1.5,-0.288675 l 0,-0.57735 -0.5,-0.288675 -0.5,0.288675 m 1.5,-0.288675 l 0,-0.57735 -0.5,-0.288675 -0.5,0.288675 m 1.5,-0.288675 l 0,-0.57735 -0.5,-0.288675 -0.5,0.288675 m 0.5,-0.288675 l 0,-0.57735 -0.5,-0.288675 -0.5,0.288675 m 0.5,-0.288675 l 0,-0.57735 -0.5,-0.288675 -0.5,0.288675 m 0.5,-0.288675 l 0,-0.57735 -0.5,-0.288675 -0.5,0.288675 m 0,0.57735 l 0,-0.57735 -0.5,-0.288675 -0.5,0.288675 m 0,0.57735 l 0,-0.57735 -0.5,-0.288675 -0.5,0.288675 m 0,0.57735 l 0,-0.57735 -0.5,-0.288675 -0.5,0.288675 m 0.5,1.44338 l 0,-0.57735 -0.5,-0.288675 -0.5,0.288675 m 0.5,1.44338 l 0,-0.57735 -0.5,-0.288675 -0.5,0.288675 m -2,5.7735 l 0,-0.57735 -0.5,-0.288675 -0.5,0.288675 m 1.5,1.44338 l 0,-0.57735 -0.5,-0.288675 -0.5,0.288675 m 2,0.57735 l 0,-0.57735 -0.5,-0.288675 -0.5,0.288675 m 1.5,-0.288675 l 0,-0.57735 -0.5,-0.288675 -0.5,0.288675 m -0.5,-0.288675 l 0,-0.57735 -0.5,-0.288675 -0.5,0.288675 m 3,2.3094 l 0,-0.57735 -0.5,-0.288675 -0.5,0.288675 m -1.5,-2.02073 l 0,-0.57735 -0.5,-0.288675 -0.5,0.288675 m 4.5,3.17543 l 0,-0.57735 -0.5,-0.288675 -0.5,0.288675 m 1,-1.1547 l 0,-0.57735 -0.5,-0.288675 -0.5,0.288675 m 0,0.57735 l 0,-0.57735 -0.5,-0.288675 -0.5,0.288675 m -0.5,-0.288675 l 0,-0.57735 -0.5,-0.288675 -0.5,0.288675 m 2,-2.88675 l 0,-0.57735 -0.5,-0.288675 -0.5,0.288675 m -1.5,6.63953 l 0,-0.57735 -0.5,-0.288675 -0.5,0.288675 m 1,-1.1547 l 0,-0.57735 -0.5,-0.288675 -0.5,0.288675 m 1,-1.1547 l 0,-0.57735 -0.5,-0.288675 -0.5,0.288675 m 1,-2.88675 l 0,-0.57735 -0.5,-0.288675 -0.5,0.288675 m 1.5,-0.288675 l 0,-0.57735 -0.5,-0.288675 -0.5,0.288675 m 1.5,1.44338 l 0,-0.57735 -0.5,-0.288675 -0.5,0.288675 m 1.5,-0.288675 l 0,-0.57735 -0.5,-0.288675 -0.5,0.288675 m 1.5,1.44338 l 0,-0.57735 -0.5,-0.288675 -0.5,0.288675 m 1.5,-0.288675 l 0,-0.57735 -0.5,-0.288675 -0.5,0.288675 m 1.5,1.44338 l 0,-0.57735 -0.5,-0.288675 -0.5,0.288675 m 1.5,-0.288675 l 0,-0.57735 -0.5,-0.288675 -0.5,0.288675 m 2.5,8.37158 l 0,-0.57735 -0.5,-0.288675 -0.5,0.288675 m 1,-1.1547 l 0,-0.57735 -0.5,-0.288675 -0.5,0.288675 m 2.5,1.44338 l 0,-0.57735 -0.5,-0.288675 -0.5,0.288675 m 0.5,-0.288675 l 0,-0.57735 -0.5,-0.288675 -0.5,0.288675 m 2.5,1.44338 l 0,-0.57735 -0.5,-0.288675 -0.5,0.288675 m 2,0.57735 l 0,-0.57735 -0.5,-0.288675 -0.5,0.288675 m 1,-1.1547 l 0,-0.57735 -0.5,-0.288675 -0.5,0.288675 m 1,-4.6188 l 0,-0.57735 -0.5,-0.288675 -0.5,0.288675 m 2,5.7735 l 0,-0.57735 -0.5,-0.288675 -0.5,0.288675 m 0.5,-0.288675 l 0,-0.57735 -0.5,-0.288675 -0.5,0.288675 m 1.5,-0.288675 l 0,-0.57735 -0.5,-0.288675 -0.5,0.288675 m 1,-1.1547 l 0,-0.57735 -0.5,-0.288675 -0.5,0.288675 m 0.5,-0.288675 l 0,-0.57735 -0.5,-0.288675 -0.5,0.288675 m 1.5,-0.288675 l 0,-0.57735 -0.5,-0.288675 -0.5,0.288675 m -9,6.9282 l 0,0.57735 -0.5,0.288675 0,0.57735 0.5,0.288675 0.5,-0.288675 0.5,0.288675 0.5,-0.288675 0.5,0.288675 0.5,-0.288675 0.5,0.288675 0.5,-0.288675 0.5,0.288675 0.5,-0.288675 0.5,0.288675 0.5,-0.288675 0.5,0.288675 0.5,-0.288675 0.5,0.288675 0.5,-0.288675 0.5,0.288675 0.5,-0.288675 0.5,0.288675 0.5,-0.288675 0,-0.57735 0.5,-0.288675 0,-0.57735 -0.5,-0.288675 0,-0.57735 0.5,-0.288675 0,-0.57735 -0.5,-0.288675 0,-0.57735 0.5,-0.288675 0,-0.57735 -0.5,-0.288675 0,-0.57735 0.5,-0.288675 0,-0.57735 -0.5,-0.288675 0,-0.57735 0.5,-0.288675 0,-0.57735 -0.5,-0.288675 -0.5,0.288675 -0.5,-0.288675 -0.5,0.288675 -0.5,-0.288675 -0.5,0.288675 -0.5,-0.288675 -0.5,0.288675 -0.5,-0.288675 -0.5,0.288675 -0.5,-0.288675 -0.5,0.288675 -0.5,-0.288675 -0.5,0.288675 -0.5,-0.288675 -0.5,0.288675 -0.5,-0.288675 -0.5,0.288675 -0.5,-0.288675 -0.5,0.288675 0,0.57735 -0.5,0.288675 0,0.57735 0.5,0.288675 0,0.57735 -0.5,0.288675 0,0.57735 0.5,0.288675 0,0.57735 -0.5,0.288675 0,0.57735 0.5,0.288675 0,0.57735 -0.5,0.288675 0,0.57735 0.5,0.288675"/>
</svg>
